#!OML:ASF F:\VICON\USERDATA\INSTALL\rory3\rory3.ASF
:FULLY-SPECIFIED
:DEGREES
3369
root 2.45404 18.8435 3.51362 183.97 -101.73 -182.669
lowerback 7.49614 1.43973 -2.27762
upperback 1.71893 1.63272 -1.89024
thorax -2.43393 0.800216 -0.824317
lowerneck -8.32485 -2.79609 -6.97329
upperneck 16.9315 -4.71574 9.76022
head 6.9101 -2.01243 3.91445
rclavicle 1.44119e-014 1.19271e-014
rhumerus -37.2318 5.19171 -80.1563
rradius 52.3615
rwrist 15.5314
rhand -30.1305 12.8057
rfingers 7.12502
rthumb -3.44351 -17.1463
lclavicle 1.44119e-014 1.19271e-014
lhumerus -25.8148 3.52515 79.8141
lradius 41.7558
lwrist -6.00687
lhand -26.0607 19.4885
lfingers 7.12502
lthumb 0.487146 49.4677
rfemur -3.28389 7.41387 19.561
rtibia 39.6256
rfoot -22.942 -15.3829
rtoes -3.84807
lfemur -12.6149 -0.259238 -23.2363
ltibia 24.3838
lfoot -22.551 24.5333
ltoes 20.6735
3370
root 2.49294 18.8471 3.48474 184.052 -101.079 -182.819
lowerback 7.49157 1.43382 -2.3753
upperback 1.69298 1.62227 -1.7537
thorax -2.46479 0.796724 -0.628154
lowerneck -8.18041 -2.8807 -7.43765
upperneck 17.2161 -4.84383 9.97546
head 7.00236 -2.09187 4.0581
rclavicle -2.38542e-014 7.95139e-016
rhumerus -37.1711 5.64206 -80.162
rradius 52.5242
rwrist 15.7486
rhand -30.8506 12.6058
rfingers 7.12502
rthumb -4.1389 -17.3338
lclavicle -2.38542e-014 7.95139e-016
lhumerus -26.1605 4.13516 79.8439
lradius 41.6196
lwrist -6.15366
lhand -26.123 19.3014
lfingers 7.12502
lthumb 0.426987 49.2807
rfemur -2.79959 7.40947 19.4815
rtibia 39.4868
rfoot -22.7303 -15.8727
rtoes -2.10726
lfemur -12.538 -0.0438491 -23.1561
ltibia 24.1254
lfoot -22.682 24.91
ltoes 20.9182
3371
root 2.53005 18.8525 3.45608 184.194 -100.391 -182.997
lowerback 7.42914 1.47235 -2.37299
upperback 1.68165 1.67727 -1.71804
thorax -2.44317 0.824293 -0.596448
lowerneck -8.08866 -3.03934 -7.89817
upperneck 17.4951 -5.11956 10.4186
head 7.12343 -2.22412 4.2635
rclavicle 7.95139e-015 -3.97569e-015
rhumerus -37.0779 5.76109 -80.2257
rradius 52.6384
rwrist 16.1715
rhand -30.8011 12.2859
rfingers 7.12502
rthumb -4.09103 -17.6546
lclavicle 7.95139e-015 -3.97569e-015
lhumerus -26.43 4.24408 79.763
lradius 41.5185
lwrist -5.81619
lhand -26.1976 19.6475
lfingers 7.12502
lthumb 0.354886 49.627
rfemur -2.40337 7.2999 19.3611
rtibia 39.3545
rfoot -22.0563 -16.6541
rtoes -0.228832
lfemur -12.4591 -0.0224608 -23.0654
ltibia 23.8327
lfoot -23.0021 25.3971
ltoes 21.5464
3372
root 2.57209 18.8581 3.42337 184.529 -99.6784 -183.347
lowerback 7.39636 1.56347 -2.27965
upperback 1.67854 1.80436 -1.77235
thorax -2.42452 0.886533 -0.715863
lowerneck -8.02451 -3.17566 -7.91523
upperneck 17.7876 -5.36956 10.5255
head 7.23432 -2.34065 4.2835
rclavicle -2.31584e-014 2.14687e-014
rhumerus -36.9691 5.64292 -80.3575
rradius 52.7714
rwrist 16.4412
rhand -30.3678 12.884
rfingers 7.12502
rthumb -3.67262 -17.0641
lclavicle -2.31584e-014 2.14687e-014
lhumerus -26.5342 4.23027 79.5767
lradius 41.3571
lwrist -5.48109
lhand -26.087 19.8196
lfingers 7.12502
lthumb 0.461756 49.7988
rfemur -2.11567 7.06896 19.2344
rtibia 39.1967
rfoot -21.6292 -17.4117
rtoes 1.08925
lfemur -12.4095 0.111873 -22.9292
ltibia 23.5143
lfoot -22.5314 26.1387
ltoes 20.4277
3373
root 2.61948 18.8572 3.38909 183.645 -98.9221 -182.554
lowerback 7.51915 1.66105 -2.39571
upperback 1.68312 1.91709 -1.81352
thorax -2.49106 0.942528 -0.707811
lowerneck -7.95307 -3.24901 -8.01315
upperneck 18.1352 -5.50197 10.5133
head 7.34938 -2.41502 4.28946
rclavicle -6.75868e-015 4.77083e-015
rhumerus -36.8853 5.7634 -80.457
rradius 52.998
rwrist 16.4931
rhand -30.2158 13.5768
rfingers 7.12502
rthumb -3.52587 -16.3738
lclavicle -6.75868e-015 4.77083e-015
lhumerus -26.6624 4.57602 79.468
lradius 41.1181
lwrist -5.54723
lhand -25.8323 19.5731
lfingers 7.12502
lthumb 0.707702 49.5517
rfemur -1.73734 6.95156 18.9
rtibia 38.9772
rfoot -21.4782 -17.9666
rtoes 1.99691
lfemur -12.2711 0.076894 -22.9667
ltibia 23.2616
lfoot -22.5192 26.6349
ltoes 20.0984
3374
root 2.65923 18.8644 3.3598 182.498 -98.2243 -181.469
lowerback 7.52678 1.70831 -2.49766
upperback 1.69068 1.96962 -1.84045
thorax -2.49031 0.968538 -0.683731
lowerneck -7.86626 -3.28158 -8.19533
upperneck 18.5008 -5.5805 10.5585
head 7.46613 -2.46588 4.33488
rclavicle 3.0911e-014 -1.43125e-014
rhumerus -36.8519 6.1014 -80.5855
rradius 53.3189
rwrist 16.4294
rhand -30.4622 13.1567
rfingers 7.12502
rthumb -3.76379 -16.7898
lclavicle 3.0911e-014 -1.43125e-014
lhumerus -26.9243 4.86782 79.3797
lradius 40.955
lwrist -5.64453
lhand -26.1209 19.773
lfingers 7.12502
lthumb 0.428962 49.7523
rfemur -1.28749 6.87716 18.5134
rtibia 38.6554
rfoot -21.4752 -18.3753
rtoes 2.96598
lfemur -12.2051 0.0993931 -23.0754
ltibia 23.0966
lfoot -23.1951 27.0903
ltoes 20.7551
3375
root 2.69434 18.8826 3.33346 182.782 -97.5534 -181.761
lowerback 7.37435 1.74918 -2.33342
upperback 1.71568 2.04292 -1.85791
thorax -2.37392 1.00347 -0.795069
lowerneck -7.84877 -3.3618 -7.96092
upperneck 18.9271 -5.7051 10.1819
head 7.59837 -2.54169 4.16205
rclavicle -2.28602e-015 3.57812e-014
rhumerus -36.8047 6.28706 -80.7124
rradius 53.6453
rwrist 16.3034
rhand -30.7979 12.4561
rfingers 7.12502
rthumb -4.08802 -17.4845
lclavicle -2.28602e-015 3.57812e-014
lhumerus -27.1915 5.03267 79.2373
lradius 40.8875
lwrist -5.62056
lhand -26.4157 20.121
lfingers 7.12502
lthumb 0.144281 50.1007
rfemur -0.904183 6.77867 18.3325
rtibia 38.3245
rfoot -21.6691 -18.8786
rtoes 3.83492
lfemur -12.1763 0.320862 -22.9977
ltibia 22.8585
lfoot -22.8435 27.9337
ltoes 19.5475
3376
root 2.73289 18.8937 3.30633 184.133 -96.8704 -183.111
lowerback 7.27458 1.77926 -2.07733
upperback 1.70489 2.10811 -1.82636
thorax -2.32182 1.03525 -0.908714
lowerneck -7.94926 -3.47868 -7.54288
upperneck 19.4887 -5.8481 9.49411
head 7.78468 -2.63507 3.85069
rclavicle 3.97569e-016 -7.15625e-015
rhumerus -36.7543 6.40008 -80.8226
rradius 53.895
rwrist 16.4247
rhand -30.8883 12.3938
rfingers 7.12502
rthumb -4.17532 -17.5451
lclavicle 3.97569e-016 -7.15625e-015
lhumerus -27.4843 5.44681 79.0518
lradius 40.7961
lwrist -5.60584
lhand -26.1339 20.0737
lfingers 7.12502
lthumb 0.416466 50.053
rfemur -0.609209 6.79973 18.3116
rtibia 38.0895
rfoot -21.7706 -19.6197
rtoes 4.52955
lfemur -12.0667 0.398559 -22.7797
ltibia 22.4534
lfoot -22.555 28.7953
ltoes 18.7525
3377
root 2.7741 18.8813 3.27507 185.38 -96.1326 -184.301
lowerback 7.15786 1.79168 -1.9528
upperback 1.64002 2.13975 -1.78736
thorax -2.32078 1.0517 -0.93852
lowerneck -7.9332 -3.53474 -7.28578
upperneck 19.9263 -5.92847 9.05644
head 7.91393 -2.69471 3.65643
rclavicle 2.78299e-015 3.18055e-015
rhumerus -36.7125 6.66613 -81.0384
rradius 54.0974
rwrist 16.5951
rhand -30.9831 12.3429
rfingers 7.12502
rthumb -4.26682 -17.5941
lclavicle 2.78299e-015 3.18055e-015
lhumerus -27.8529 5.97025 78.8004
lradius 40.6803
lwrist -5.5397
lhand -25.9304 20.0101
lfingers 7.12502
lthumb 0.612995 49.9889
rfemur -0.482832 6.89285 18.2229
rtibia 37.9841
rfoot -21.6588 -20.4262
rtoes 4.87763
lfemur -11.9205 0.482739 -22.6454
ltibia 21.9131
lfoot -22.4996 29.4389
ltoes 18.692
